<svg xmlns="http://www.w3.org/2000/svg" xmlns:xlink="http://www.w3.org/1999/xlink" width="500" zoomAndPan="magnify" viewBox="0 0 375 374.999991" height="500" preserveAspectRatio="xMidYMid meet" version="1.0"><defs><g/><clipPath id="20069b198c"><path d="M 303.042969 165.300781 L 365.292969 165.300781 L 365.292969 209.550781 L 303.042969 209.550781 Z M 303.042969 165.300781 " clip-rule="nonzero"/></clipPath></defs><g clip-path="url(#20069b198c)"><path fill="#000000" d="M 361.683594 165.300781 C 361.289062 165.300781 360.894531 165.300781 360.5 165.300781 L 306.992188 165.300781 C 305.265625 165.300781 303.636719 166.285156 303.242188 168.054688 C 303.144531 168.792969 303.09375 169.527344 303.144531 170.265625 L 303.144531 204.632812 C 303.09375 205.46875 303.144531 206.304688 303.339844 207.09375 C 303.882812 208.714844 305.414062 209.550781 307.042969 209.550781 L 361.683594 209.550781 C 361.785156 209.550781 361.882812 209.5 361.980469 209.453125 C 363.957031 209.253906 365.238281 207.632812 365.238281 205.617188 L 365.238281 169.136719 C 365.238281 167.070312 363.808594 165.351562 361.683594 165.300781 Z M 304.378906 168.839844 C 304.425781 167.316406 305.613281 166.480469 307.042969 166.480469 L 356.550781 166.480469 C 358.230469 166.480469 359.957031 166.429688 361.636719 166.480469 C 363.117188 166.53125 364.054688 167.660156 364.054688 169.085938 L 364.054688 173.363281 L 311.238281 173.363281 C 308.917969 173.363281 306.648438 173.265625 304.378906 173.363281 C 304.328125 171.890625 304.328125 170.363281 304.378906 168.839844 Z M 364.003906 205.914062 C 364.003906 207.191406 362.96875 208.222656 361.636719 208.273438 C 361.585938 208.273438 361.535156 208.273438 361.535156 208.273438 L 307.289062 208.273438 C 306.253906 208.273438 305.214844 208.125 304.671875 207.09375 C 304.277344 206.355469 304.378906 205.519531 304.378906 204.683594 L 304.378906 175.132812 C 304.378906 174.984375 304.378906 174.789062 304.378906 174.640625 L 357.144531 174.640625 C 359.464844 174.640625 361.734375 174.742188 364.003906 174.640625 L 364.003906 205.421875 C 364.003906 205.566406 364.003906 205.765625 364.003906 205.914062 Z M 364.003906 205.914062 " fill-opacity="1" fill-rule="nonzero"/></g><path fill="#000000" d="M 308.523438 170.511719 C 308.523438 170.464844 308.472656 170.464844 308.523438 170.511719 Z M 308.523438 170.511719 " fill-opacity="1" fill-rule="nonzero"/><path fill="#000000" d="M 310.941406 171.644531 C 311.289062 171.25 311.4375 170.808594 311.4375 170.265625 C 311.4375 170.167969 311.4375 170.117188 311.4375 170.019531 C 311.335938 169.234375 310.792969 168.59375 310.054688 168.300781 C 309.265625 168.003906 308.328125 168.25 307.785156 168.890625 C 307.042969 169.773438 307.140625 171.054688 307.980469 171.839844 C 308.871094 172.578125 310.152344 172.480469 310.941406 171.644531 Z M 310.203125 170.117188 C 310.203125 170.117188 310.203125 170.167969 310.203125 170.117188 C 310.203125 170.167969 310.203125 170.167969 310.203125 170.167969 C 310.203125 170.167969 310.203125 170.167969 310.203125 170.117188 Z M 308.472656 170.117188 C 308.472656 170.070312 308.472656 170.070312 308.472656 170.019531 C 308.472656 169.972656 308.523438 169.921875 308.523438 169.824219 L 308.574219 169.726562 L 308.621094 169.628906 C 308.671875 169.578125 308.722656 169.527344 308.769531 169.480469 L 308.820312 169.480469 C 308.769531 169.527344 308.820312 169.480469 308.871094 169.480469 C 308.917969 169.429688 309.015625 169.429688 309.066406 169.382812 C 309.066406 169.382812 308.917969 169.429688 309.015625 169.382812 L 309.117188 169.332031 L 309.214844 169.332031 C 309.214844 169.332031 309.214844 169.332031 309.265625 169.332031 C 309.265625 169.332031 309.3125 169.332031 309.3125 169.332031 L 309.460938 169.332031 L 309.707031 169.382812 C 309.808594 169.429688 309.808594 169.429688 309.808594 169.429688 L 309.855469 169.480469 L 309.90625 169.527344 C 309.855469 169.480469 309.808594 169.480469 309.855469 169.527344 L 310.003906 169.675781 C 310.003906 169.726562 310.054688 169.726562 310.054688 169.773438 L 310.101562 169.871094 C 310.101562 169.921875 310.101562 169.972656 310.152344 169.972656 C 310.152344 170.019531 310.101562 170.070312 310.101562 170.117188 C 310.101562 170.167969 310.101562 170.167969 310.101562 170.21875 C 310.101562 170.265625 310.054688 170.363281 310.054688 170.414062 C 310.054688 170.414062 310.054688 170.464844 310.054688 170.464844 C 310.054688 170.464844 310.054688 170.464844 310.054688 170.511719 C 310.003906 170.5625 309.957031 170.660156 309.957031 170.707031 C 309.957031 170.707031 309.90625 170.757812 309.90625 170.757812 C 309.90625 170.757812 309.855469 170.808594 309.855469 170.808594 L 309.808594 170.808594 C 309.757812 170.855469 309.757812 170.855469 309.808594 170.808594 C 309.757812 170.855469 309.707031 170.855469 309.707031 170.90625 L 309.660156 170.953125 L 309.414062 171.054688 C 309.363281 171.054688 309.363281 171.054688 309.3125 171.054688 L 309.117188 171.054688 C 309.066406 171.054688 309.015625 171.054688 309.015625 171.003906 L 308.917969 170.953125 C 308.820312 170.90625 308.96875 170.953125 308.96875 170.953125 C 308.96875 170.953125 308.820312 170.855469 308.820312 170.855469 L 308.722656 170.808594 C 308.722656 170.808594 308.574219 170.660156 308.574219 170.660156 L 308.523438 170.609375 L 308.523438 170.511719 C 308.523438 170.511719 308.523438 170.5625 308.523438 170.5625 C 308.523438 170.5625 308.472656 170.414062 308.472656 170.363281 Z M 308.472656 170.117188 " fill-opacity="1" fill-rule="nonzero"/><path fill="#000000" d="M 315.878906 171.542969 C 316.175781 171.199219 316.324219 170.757812 316.371094 170.316406 C 316.371094 170.265625 316.371094 170.265625 316.371094 170.21875 C 316.371094 170.21875 316.371094 170.167969 316.371094 170.167969 C 316.371094 169.28125 315.828125 168.496094 314.988281 168.203125 C 314.199219 167.90625 313.261719 168.152344 312.71875 168.792969 C 311.980469 169.675781 312.078125 170.953125 312.917969 171.742188 C 313.804688 172.527344 315.089844 172.429688 315.878906 171.542969 Z M 313.460938 170.117188 C 313.460938 170.070312 313.460938 170.070312 313.460938 170.019531 C 313.460938 169.972656 313.507812 169.921875 313.507812 169.824219 L 313.609375 169.628906 C 313.65625 169.578125 313.707031 169.527344 313.757812 169.480469 L 313.804688 169.480469 C 313.804688 169.480469 313.804688 169.480469 313.855469 169.480469 C 313.902344 169.429688 314.003906 169.429688 314.050781 169.382812 C 314.050781 169.382812 313.902344 169.429688 314.003906 169.382812 L 314.101562 169.332031 L 314.199219 169.332031 C 314.199219 169.332031 314.199219 169.332031 314.25 169.332031 C 314.25 169.332031 314.300781 169.332031 314.300781 169.332031 L 314.398438 169.332031 L 314.644531 169.382812 C 314.742188 169.429688 314.742188 169.429688 314.742188 169.429688 C 314.742188 169.429688 314.792969 169.429688 314.792969 169.480469 C 314.792969 169.480469 314.792969 169.480469 314.84375 169.527344 L 314.988281 169.675781 C 314.988281 169.726562 315.039062 169.726562 315.039062 169.773438 L 315.089844 169.871094 C 315.136719 169.972656 315.136719 170.019531 315.136719 170.070312 C 315.136719 170.070312 315.136719 170.070312 315.136719 170.117188 C 315.136719 170.117188 315.136719 170.117188 315.136719 170.167969 C 315.136719 170.21875 315.136719 170.21875 315.136719 170.265625 C 315.136719 170.316406 315.089844 170.414062 315.089844 170.464844 C 315.089844 170.464844 315.089844 170.511719 315.089844 170.511719 C 315.089844 170.511719 315.089844 170.511719 315.089844 170.5625 L 314.988281 170.757812 C 314.988281 170.757812 314.941406 170.808594 314.941406 170.808594 L 314.890625 170.855469 C 314.84375 170.90625 314.84375 170.90625 314.890625 170.855469 C 314.84375 170.90625 314.792969 170.90625 314.792969 170.953125 L 314.742188 171.003906 L 314.445312 171.054688 C 314.398438 171.054688 314.398438 171.054688 314.347656 171.054688 L 314.003906 171.054688 L 313.902344 171.003906 C 313.804688 170.953125 313.953125 171.003906 313.953125 171.003906 C 313.953125 171.003906 313.804688 170.90625 313.804688 170.90625 C 313.804688 170.90625 313.757812 170.855469 313.707031 170.855469 C 313.707031 170.855469 313.558594 170.707031 313.558594 170.707031 L 313.507812 170.660156 L 313.558594 170.609375 L 313.558594 170.5625 C 313.558594 170.511719 313.507812 170.511719 313.558594 170.5625 C 313.558594 170.511719 313.507812 170.464844 313.507812 170.414062 C 313.507812 170.414062 313.507812 170.363281 313.507812 170.316406 C 313.460938 170.265625 313.460938 170.167969 313.460938 170.117188 Z M 313.460938 170.117188 " fill-opacity="1" fill-rule="nonzero"/><path fill="#000000" d="M 313.460938 170.117188 C 313.507812 169.972656 313.460938 170.070312 313.460938 170.117188 Z M 313.460938 170.117188 " fill-opacity="1" fill-rule="nonzero"/><path fill="#000000" d="M 320.960938 171.644531 C 321.308594 171.25 321.457031 170.808594 321.457031 170.265625 C 321.457031 170.167969 321.457031 170.117188 321.457031 170.019531 C 321.308594 169.234375 320.8125 168.59375 320.074219 168.300781 C 319.285156 168.003906 318.347656 168.25 317.804688 168.890625 C 317.0625 169.773438 317.160156 171.054688 318 171.839844 C 318.839844 172.625 320.171875 172.480469 320.960938 171.644531 Z M 320.222656 170.117188 C 320.222656 170.117188 320.222656 170.167969 320.222656 170.117188 C 320.222656 170.167969 320.222656 170.167969 320.222656 170.167969 C 320.222656 170.167969 320.222656 170.167969 320.222656 170.117188 Z M 318.496094 170.117188 C 318.496094 170.117188 318.496094 170.070312 318.496094 170.019531 C 318.496094 169.972656 318.542969 169.871094 318.542969 169.824219 L 318.59375 169.726562 L 318.640625 169.628906 C 318.691406 169.578125 318.742188 169.527344 318.789062 169.480469 L 318.839844 169.480469 C 318.789062 169.527344 318.839844 169.480469 318.890625 169.480469 C 318.9375 169.429688 319.039062 169.429688 319.085938 169.382812 C 319.085938 169.382812 318.9375 169.429688 319.039062 169.382812 L 319.136719 169.332031 L 319.234375 169.332031 C 319.234375 169.332031 319.234375 169.332031 319.285156 169.332031 C 319.285156 169.332031 319.332031 169.332031 319.332031 169.332031 L 319.53125 169.332031 L 319.777344 169.382812 C 319.875 169.429688 319.875 169.429688 319.875 169.429688 L 319.925781 169.480469 C 319.925781 169.480469 319.925781 169.480469 319.976562 169.527344 L 320.125 169.675781 C 320.125 169.726562 320.171875 169.726562 320.171875 169.773438 C 320.171875 169.824219 320.222656 169.824219 320.222656 169.871094 C 320.222656 169.921875 320.269531 169.972656 320.269531 170.019531 C 320.269531 170.070312 320.222656 170.117188 320.222656 170.167969 C 320.222656 170.21875 320.222656 170.21875 320.222656 170.265625 C 320.222656 170.316406 320.171875 170.414062 320.171875 170.464844 C 320.171875 170.464844 320.171875 170.464844 320.171875 170.511719 C 320.125 170.5625 320.074219 170.660156 320.074219 170.707031 C 320.074219 170.707031 320.023438 170.757812 320.023438 170.757812 C 320.023438 170.757812 319.976562 170.808594 319.976562 170.808594 C 319.925781 170.855469 319.925781 170.855469 319.976562 170.808594 C 319.925781 170.855469 319.875 170.855469 319.875 170.90625 L 319.828125 170.953125 L 319.433594 171.054688 C 319.382812 171.054688 319.382812 171.054688 319.332031 171.054688 L 319.136719 171.054688 L 319.039062 171.003906 L 318.9375 170.953125 C 318.839844 170.953125 318.988281 170.953125 318.988281 170.953125 C 318.988281 170.953125 318.839844 170.855469 318.839844 170.855469 L 318.742188 170.808594 C 318.742188 170.808594 318.640625 170.707031 318.59375 170.660156 L 318.542969 170.5625 L 318.59375 170.511719 C 318.59375 170.464844 318.542969 170.363281 318.542969 170.316406 L 318.542969 170.21875 C 318.496094 170.21875 318.496094 170.167969 318.496094 170.117188 Z M 318.496094 170.117188 " fill-opacity="1" fill-rule="nonzero"/><path fill="#000000" d="M 319.433594 171.054688 C 319.433594 171.003906 319.332031 171.054688 319.433594 171.054688 Z M 319.433594 171.054688 " fill-opacity="1" fill-rule="nonzero"/><path fill="#000000" d="M 318.496094 170.117188 C 318.542969 169.972656 318.496094 170.070312 318.496094 170.117188 Z M 318.496094 170.117188 " fill-opacity="1" fill-rule="nonzero"/><path fill="#000000" d="M 341.445312 185.113281 C 340.953125 184.523438 340.066406 185.410156 340.558594 186 L 345.347656 191.457031 L 340.558594 196.914062 C 340.015625 197.503906 340.902344 198.390625 341.445312 197.800781 L 346.628906 191.898438 C 346.875 191.652344 346.875 191.261719 346.628906 191.015625 Z M 341.445312 185.113281 " fill-opacity="1" fill-rule="nonzero"/><path fill="#000000" d="M 326.933594 185.113281 L 321.800781 191.015625 C 321.554688 191.261719 321.554688 191.652344 321.800781 191.898438 L 326.933594 197.800781 C 327.476562 198.390625 328.316406 197.503906 327.824219 196.914062 L 323.035156 191.457031 L 327.824219 186 C 328.367188 185.410156 327.476562 184.523438 326.933594 185.113281 Z M 326.933594 185.113281 " fill-opacity="1" fill-rule="nonzero"/><path fill="#000000" d="M 336.609375 185.214844 L 331.476562 195.539062 L 330.734375 197.011719 C 330.390625 197.703125 331.425781 198.339844 331.820312 197.652344 L 337.003906 187.328125 L 337.746094 185.851562 C 337.992188 185.164062 336.957031 184.523438 336.609375 185.214844 Z M 336.609375 185.214844 " fill-opacity="1" fill-rule="nonzero"/><g fill="#000000" fill-opacity="1"><g transform="translate(19.155026, 206.643091)"><g><path d="M 35.472656 0 L 16.996094 -18.886719 L 34.65625 -36.339844 L 26.746094 -36.339844 L 10.515625 -20.058594 L 10.515625 -36.339844 L 3.929688 -36.339844 L 3.929688 0 L 10.515625 0 L 10.515625 -16.996094 L 27.410156 0 Z M 35.472656 0 "/></g></g></g><g fill="#000000" fill-opacity="1"><g transform="translate(53.145511, 206.643091)"><g><path d="M 31.695312 0 L 38.28125 0 L 21.792969 -36.339844 L 16.433594 -36.339844 L 0 0 L 6.636719 0 L 10.308594 -8.523438 L 28.074219 -8.523438 Z M 12.503906 -13.628906 L 19.191406 -29.195312 L 25.878906 -13.628906 Z M 12.503906 -13.628906 "/></g></g></g><g fill="#000000" fill-opacity="1"><g transform="translate(91.423082, 206.643091)"><g><path d="M 16.230469 0.460938 C 22.152344 0.460938 26.644531 -1.378906 28.941406 -4.644531 C 30.113281 -6.226562 30.675781 -8.117188 30.675781 -10.308594 C 30.675781 -14.242188 28.582031 -16.792969 24.753906 -18.476562 C 22.867188 -19.292969 20.367188 -20.058594 17.355469 -20.773438 C 14.445312 -21.4375 12.351562 -22.101562 11.179688 -22.867188 C 9.953125 -23.632812 9.339844 -24.703125 9.339844 -26.132812 C 9.339844 -29.449219 12.25 -31.542969 16.945312 -31.542969 C 20.875 -31.542969 24.449219 -30.265625 27.664062 -27.664062 L 29.859375 -32.460938 C 26.949219 -35.167969 22.050781 -36.800781 16.945312 -36.800781 C 11.382812 -36.800781 6.941406 -34.757812 4.644531 -31.441406 C 3.472656 -29.757812 2.910156 -27.867188 2.910156 -25.726562 C 2.910156 -19.753906 6.839844 -17.046875 15.976562 -15.058594 C 18.886719 -14.394531 21.027344 -13.730469 22.304688 -13.015625 C 23.582031 -12.25 24.195312 -11.230469 24.195312 -9.851562 C 24.195312 -6.636719 21.335938 -4.796875 16.28125 -4.796875 C 11.738281 -4.796875 7.960938 -6.023438 4.441406 -8.675781 L 2.195312 -3.878906 C 5.613281 -1.070312 10.667969 0.460938 16.230469 0.460938 Z M 16.230469 0.460938 "/></g></g></g><g fill="#000000" fill-opacity="1"><g transform="translate(124.290766, 206.643091)"><g><path d="M 29.042969 -36.339844 L 29.042969 -21.132812 L 10.414062 -21.132812 L 10.414062 -36.339844 L 3.929688 -36.339844 L 3.929688 0 L 10.414062 0 L 10.414062 -15.773438 L 29.042969 -15.773438 L 29.042969 0 L 35.574219 0 L 35.574219 -36.339844 Z M 29.042969 -36.339844 "/></g></g></g><g fill="#000000" fill-opacity="1"><g transform="translate(163.793224, 206.643091)"><g><path d="M 49.664062 -36.339844 L 40.375 -9.035156 L 31.136719 -36.339844 L 26.4375 -36.339844 L 16.996094 -9.238281 L 7.910156 -36.339844 L 1.226562 -36.339844 L 14.035156 0 L 19.394531 0 L 28.632812 -26.132812 L 37.769531 0 L 43.128906 0 L 55.992188 -36.339844 Z M 49.664062 -36.339844 "/></g></g></g><g fill="#000000" fill-opacity="1"><g transform="translate(220.954402, 206.643091)"><g><path d="M 31.695312 0 L 38.28125 0 L 21.792969 -36.339844 L 16.433594 -36.339844 L 0 0 L 6.636719 0 L 10.308594 -8.523438 L 28.074219 -8.523438 Z M 12.503906 -13.628906 L 19.191406 -29.195312 L 25.878906 -13.628906 Z M 12.503906 -13.628906 "/></g></g></g><g fill="#000000" fill-opacity="1"><g transform="translate(259.231973, 206.643091)"><g><path d="M 34.09375 -36.339844 L 26.59375 -36.339844 L 16.027344 -19.90625 L 5.511719 -36.339844 L -1.992188 -36.339844 L 12.761719 -14.394531 L 12.761719 0 L 19.34375 0 L 19.34375 -14.394531 Z M 34.09375 -36.339844 "/></g></g></g></svg>